# xmcd
#
# Track frame offsets:
# 150
# 15373
# 20194
# 22813
# 23936
# 37992
# 42656
# 45132
# 46070
# 64417
# 69169
# 71672
# 72686
# 91748
# 96728
# 99454
# 100719
# 118398
# 136083
# 140761
# 143205
# 144382
# 159429
# 174432
# 179522
# 182429
# 184010
# 203507
# 223055
# 227710
# 230114
# 231229
# 244366
# 249266
# 251924
# 252949
# 268682
# 273460
# 275973
# 276917
# 294916
# 299740
# 302325
#
# Disc length: 4047 seconds
#
#
# Revision: 0
# Processed by: cddbd v1.5.2PL0 Copyright (c) Steve Scherf et al.
# Submitted via: FreeRIP 2.52 
#
DISCID=8e0fcd2b
DTITLE=Studio Cutz - Red Hot Blues
DYEAR=1900
DGENRE=Production music
TTITLE0=1-Ain't no shame - full
TTITLE1=2-Ain't no shame - 60
TTITLE2=3-Ain't no shame - 30
TTITLE3=4-Ain't no shame - 11
TTITLE4=5-Pipe Dream - full
TTITLE5=6-Pipe Dream - 60
TTITLE6=7-Pipe Dream - 30
TTITLE7=8-Pipe Dream - 10
TTITLE8=9-Sixth street - full
TTITLE9=10-Sixth street - 60
TTITLE10=11-Sixth street - 30
TTITLE11=12-Sixth street - 10
TTITLE12=13-The cat's meow - full
TTITLE13=14-The cat's meow - 60
TTITLE14=15-The cat's meow - 30
TTITLE15=16-The cat's meow - 12
TTITLE16=17-Slide on over - full
TTITLE17=18-Slide on over - alt
TTITLE18=19-Slide on over - 60
TTITLE19=20-Slide on over - 30
TTITLE20=21-Slide on over - 13
TTITLE21=22-Mojo - full
TTITLE22=23-Mojo - alt
TTITLE23=24-Mojo - 60
TTITLE24=25-Mojo - 30
TTITLE25=26-Mojo - 12
TTITLE26=27-Tempting fate - full
TTITLE27=28-Tempting fate - alt
TTITLE28=29-Tempting fate - 60
TTITLE29=30-Tempting fate - 30
TTITLE30=31-Tempting fate - 13
TTITLE31=32-Temperature rising - full
TTITLE32=33-Temperature rising - 60
TTITLE33=34-Temperature rising - 30
TTITLE34=35-Temperature rising - 10
TTITLE35=36-Straight shooter - full
TTITLE36=37-Straight shooter - 60
TTITLE37=38-Straight shooter - 30
TTITLE38=39-Straight shooter - 10
TTITLE39=40-Amazing grace - full
TTITLE40=41-Amazing grace - 60
TTITLE41=42-Amazing grace - 30
TTITLE42=43-Amazing grace - 14
EXTD=
EXTT0=
EXTT1=
EXTT2=
EXTT3=
EXTT4=
EXTT5=
EXTT6=
EXTT7=
EXTT8=
EXTT9=
EXTT10=
EXTT11=
EXTT12=
EXTT13=
EXTT14=
EXTT15=
EXTT16=
EXTT17=
EXTT18=
EXTT19=
EXTT20=
EXTT21=
EXTT22=
EXTT23=
EXTT24=
EXTT25=
EXTT26=
EXTT27=
EXTT28=
EXTT29=
EXTT30=
EXTT31=
EXTT32=
EXTT33=
EXTT34=
EXTT35=
EXTT36=
EXTT37=
EXTT38=
EXTT39=
EXTT40=
EXTT41=
EXTT42=
PLAYORDER=
